<svg xmlns="http://www.w3.org/2000/svg" width="24" height="24" fill="none" viewBox="0 0 24 24"><clipPath id="a"><path d="M0 0h24v24H0z"/></clipPath><g fill="#000" clip-path="url(#a)"><path d="M17 2a5.015 5.015 0 0 1 5 5v10a5.015 5.015 0 0 1-5 5H7a5.016 5.016 0 0 1-5-5V7a5.015 5.015 0 0 1 5-5zm0-2H7C3.15 0 0 3.15 0 7v10c0 3.85 3.15 7 7 7h10c3.85 0 7-3.15 7-7V7c0-3.85-3.15-7-7-7"/><path d="M18.5 7a1.5 1.5 0 1 1 0-3 1.5 1.5 0 0 1 0 3M12 8a4 4 0 1 1 0 8 4 4 0 0 1 0-8m0-2a6 6 0 1 0 0 12 6 6 0 0 0 0-12"/></g></svg>