<svg xmlns="http://www.w3.org/2000/svg" width="187" height="34" fill="none" viewBox="0 0 187 34"><path fill="#000" d="m1.911 1.002-.203 4.83h.322l1.287-.273a22.4 22.4 0 0 1 4.06-.475l2.796-.073v22.76c0 1.239-.106 2.486-.31 3.704l-.122.735v.362h7.92v-.378l-.123-.719a22 22 0 0 1-.31-3.704V5.007l2.805.073c1.382.036 2.767.199 4.12.487l1.244.264h.302l-.204-4.829zM45.926 1.363l.122.735c.204 1.223.31 2.465.31 3.704v8.98H35.932V5.806c0-1.239.106-2.485.31-3.704l.122-.735v-.361h-7.92v.377l.123.72c.207 1.222.31 2.469.31 3.703v21.96c0 1.24-.107 2.486-.31 3.704l-.123.735v.362h7.92v-.378l-.122-.719a22 22 0 0 1-.31-3.704v-8.98h10.426v8.98c0 1.24-.106 2.486-.31 3.704l-.122.735v.362h7.92v-.378l-.18-1.044a18 18 0 0 1-.257-3.054V5.806c0-1.239.106-2.485.31-3.704l.123-.735v-.361h-7.92v.361zM79.634 9.868v-.105c0-2.275-1.77-8.76-9.628-8.76h-13.21v.377l.11.646c.212 1.238.322 2.51.322 3.769v21.964c0 1.214-.102 2.44-.302 3.639l-.134.812v.362h7.92v-.378l-.135-.796a22 22 0 0 1-.302-3.639v-8.972h2.951l4.733 10.986c.28.642.427 1.324.427 2.027v.768h8.69v-.362l-6.733-14.37c3.314-1.737 5.299-3.975 5.287-7.968zM64.288 5.023h4.483c1.182 0 2.124.418 2.792 1.243.677.832 1.015 2.067 1.015 3.667 0 .963-.159 1.832-.472 2.591-.31.752-.755 1.324-1.321 1.698-.563.374-1.243.56-2.014.56h-4.483zM102.585 27.95c-1.463.317-2.96.434-4.455.454l-7.475.15v-9.767l4.952.045c1.418.012 2.845.162 4.239.443l.945.186h.339v-5.316h-.359l-.872.179a22.6 22.6 0 0 1-4.341.442l-4.9.025V5.023l7.399.098c1.491.02 2.991.19 4.454.503l1.04.223h.342l-.167-4.845h-20.55v.378l.121.723c.204 1.218.31 2.461.31 3.7V27.77c0 1.239-.106 2.482-.31 3.7l-.122.74v.36h20.592l.163-4.836h-.322l-1.015.223zM125.287 3.061c-2.238-1.368-4.773-2.059-7.533-2.059h-10.927v.378l.122.723c.204 1.218.31 2.461.31 3.7V27.77c0 1.235-.106 2.482-.31 3.7l-.122.74v.36h10.927c2.764 0 5.295-.694 7.533-2.058 2.237-1.37 4.01-3.27 5.27-5.65 1.263-2.38 1.899-5.105 1.899-8.094 0-2.99-.64-5.67-1.899-8.05-1.26-2.384-3.037-4.285-5.27-5.65zm.11 13.7c0 2.298-.33 4.37-.987 6.153-.652 1.778-1.577 3.18-2.751 4.163-1.166.978-2.531 1.474-4.064 1.474h-3.273V5.023h3.273c1.529 0 2.894.496 4.064 1.474 1.17.983 2.095 2.384 2.751 4.163.657 1.783.987 3.838.987 6.1M151.854 1.364l.123.739c.205 1.218.311 2.461.311 3.7v17.334c0 1.34-.21 2.453-.619 3.306-.41.849-.991 1.49-1.733 1.913-.784.447-1.521.637-2.471.637s-1.682-.19-2.471-.637c-.74-.423-1.318-1.068-1.728-1.913-.41-.853-.619-1.962-.619-3.306V5.803c0-1.235.106-2.482.311-3.7l.123-.74v-.36h-7.921v.377l.122.723c.204 1.218.31 2.461.31 3.7V20.81c0 2.644.493 4.914 1.468 6.746.974 1.835 2.368 3.22 4.136 4.11 1.74.873 3.904 1.336 6.264 1.336 2.362 0 4.529-.463 6.267-1.336 1.767-.89 3.162-2.274 4.136-4.11.974-1.832 1.468-4.102 1.468-6.746V5.803c0-1.235.106-2.482.309-3.7l.123-.74v-.36h-7.921v.36zM176.109 1.006h-.229a2 2 0 0 0-.138-.008h-13.288v.378l.123.723c.202 1.218.308 2.46.308 3.7v21.956c0 1.214-.101 2.44-.301 3.639l-.135.812v.361h8.039v-.382l-.07-.328a22.3 22.3 0 0 1-.48-4.594v-8.472h4.831c.036 0 .949.008 1.335.008 7.019 0 9.509-4.874 9.509-9.04 0-4.996-4.088-8.761-9.509-8.761zm-6.156 4.02h5.242c1.063 0 1.871.431 2.461 1.32.593.89.894 2.088.894 3.563 0 .877-.135 1.713-.395 2.485-.26.764-.648 1.36-1.159 1.775-.502.41-1.107.617-1.796.617h-5.243v-9.76z"/></svg>