<svg xmlns="http://www.w3.org/2000/svg" width="48" height="48" fill="none" viewBox="0 0 48 48"><path fill="#000" d="M46.5 42.474 42.476 46.5 27.943 31.969l4.027-4.026zM17.547 4.864c7.003 0 12.68 5.678 12.68 12.68h-1.69c0-6.068-4.92-10.988-10.99-10.989z"/><path fill="#000" fill-rule="evenodd" d="M17.547 1.5c8.862 0 16.045 7.184 16.045 16.045S26.41 33.589 17.547 33.59c-8.86 0-16.044-7.184-16.045-16.045C1.502 8.683 8.686 1.5 17.547 1.5m0 1.691c-7.927 0-14.353 6.426-14.353 14.354S9.62 31.898 17.547 31.898c7.928 0 14.354-6.426 14.354-14.353S25.475 3.19 17.547 3.19" clip-rule="evenodd"/></svg>