<svg xmlns="http://www.w3.org/2000/svg" width="24" height="25" fill="none" viewBox="0 0 24 25"><clipPath id="a"><path d="M0 .978h24v24.005H0z"/></clipPath><g clip-path="url(#a)"><path fill="#fff" d="M12 24.983c6.627 0 12-5.373 12-12 0-6.628-5.373-12-12-12s-12 5.372-12 12c0 6.627 5.373 12 12 12"/><path fill="#000" d="M7.546 24.123a11.5 11.5 0 0 1 .254-3.93L9 15.017c-.197-.63-.346-1.35-.346-2.07 0-1.68.812-2.88 2.084-2.88.883 0 1.53.615 1.53 1.8 0 .375-.076.798-.225 1.278l-.523 1.723a3 3 0 0 0-.149.917c0 1.2.917 1.877 2.083 1.877 2.084 0 3.572-2.16 3.572-4.964 0-3.12-2.04-5.116-5.055-5.116-3.36 0-5.491 2.188-5.491 5.236 0 1.23.374 2.372 1.109 3.15-.24.402-.495.48-.883.48-1.2 0-2.343-1.695-2.343-4.004 0-3.989 3.197-7.171 7.68-7.171 4.709 0 7.666 3.283 7.666 7.334 0 4.08-2.88 7.143-5.986 7.143a3.83 3.83 0 0 1-3.062-1.47l-.615 2.492c-.33 1.291-.825 2.506-1.622 3.677 1.123.345 2.237.542 3.571.542 6.629 0 12-5.371 12-12S18.63.978 12 .978s-12 5.37-12 12c0 5.025 3.091 9.36 7.546 11.145"/></g></svg>