<svg xmlns="http://www.w3.org/2000/svg" width="16" height="17" fill="none" viewBox="0 0 16 17"><path fill="#000" fill-rule="evenodd" d="M6.667 2.575a.833.833 0 0 0-.834.834v.833h4.334v-.833a.833.833 0 0 0-.834-.834zm4.5 1.667v-.833a1.833 1.833 0 0 0-1.834-1.834H6.667A1.833 1.833 0 0 0 4.833 3.41v.833H2a.5.5 0 0 0 0 1h.833v8.833a1.833 1.833 0 0 0 1.834 1.834h6.666a1.833 1.833 0 0 0 1.834-1.834V5.242H14a.5.5 0 0 0 0-1zm-7.334 1v8.833a.833.833 0 0 0 .834.834h6.666a.833.833 0 0 0 .834-.834V5.242z" clip-rule="evenodd"/></svg>